#N canvas 406 22 903 687 12;
#X obj 44 188 osc~;
#X floatatom 71 136 5 0 22000 2 - - -;
#X obj 41 557 dac~;
#X obj 45 235 *~;
#X floatatom 64 213 5 0 0 0 - - -;
#X obj 44 49 osc~;
#X floatatom 44 21 5 0 22000 2 - - -;
#X obj 45 102 *~;
#X floatatom 64 80 5 0 0 0 - - -;
#X floatatom 164 292 5 0 22000 0 - - -;
#X obj 164 268 mtof;
#X msg 319 198 69;
#X msg 350 198 71;
#X msg 288 198 67;
#X msg 397 198 72;
#X msg 164 198 60;
#X msg 195 198 62;
#X msg 226 198 64;
#X msg 257 198 65;
#X obj 164 145 select 0 1 2 3 4 5 6 7;
#X obj 164 79 metro 200;
#X msg 164 23 bang;
#X msg 209 23 stop;
#X floatatom 285 63 5 0 5000 0 - - -;
#X obj 42 524 *~;
#X floatatom 75 525 5 0 1 0 - - -;
#X obj 42 481 *~;
#X obj 304 600 line~;
#X floatatom 645 355 5 2 3000 0 - - -;
#X floatatom 645 419 5 2 3000 0 - - -;
#X floatatom 216 472 5 0 1 0 - - -;
#X floatatom 646 529 5 0 0 0 - - -;
#X msg 518 432 bang;
#X msg 304 537 1;
#X obj 216 408 delay;
#X msg 518 489 0;
#X obj 216 431 t b b;
#X obj 516 240 +;
#X obj 518 269 +;
#X floatatom 646 471 5 2 3000 0 - - -;
#X obj 518 326 delay;
#X obj 282 319 t b b b b;
#X obj 518 299 f;
#X obj 518 462 t b b;
#X text 699 528 duree release;
#X obj 535 209 r da;
#X text 696 368 duree attack (ms);
#X obj 646 393 s da;
#X obj 349 537 r da;
#X obj 645 442 s dd;
#X text 695 416 duree decay (ms);
#X obj 360 560 r dd;
#X text 80 440 volume sustain;
#X obj 495 209 r dd;
#X text 696 470 duree sustain;
#X obj 646 498 s ds;
#X obj 471 241 r ds;
#X obj 45 163 +~;
#X obj 43 309 osc~;
#X obj 44 279 +~;
#X obj 164 118 random 0;
#X connect 0 0 3 0;
#X connect 1 0 57 1;
#X connect 3 0 59 0;
#X connect 4 0 3 1;
#X connect 5 0 7 0;
#X connect 6 0 5 0;
#X connect 7 0 57 0;
#X connect 8 0 7 1;
#X connect 9 0 41 0;
#X connect 9 0 59 1;
#X connect 10 0 9 0;
#X connect 11 0 10 0;
#X connect 12 0 10 0;
#X connect 13 0 10 0;
#X connect 14 0 10 0;
#X connect 15 0 10 0;
#X connect 16 0 10 0;
#X connect 17 0 10 0;
#X connect 18 0 10 0;
#X connect 19 0 15 0;
#X connect 19 1 16 0;
#X connect 19 2 17 0;
#X connect 19 3 18 0;
#X connect 19 4 13 0;
#X connect 19 5 11 0;
#X connect 19 6 12 0;
#X connect 19 7 14 0;
#X connect 20 0 60 0;
#X connect 21 0 20 0;
#X connect 22 0 20 0;
#X connect 23 0 20 1;
#X connect 24 0 2 0;
#X connect 24 0 2 1;
#X connect 25 0 24 1;
#X connect 26 0 24 0;
#X connect 27 0 26 1;
#X connect 28 0 34 1;
#X connect 28 0 47 0;
#X connect 29 0 49 0;
#X connect 30 0 27 0;
#X connect 31 0 27 1;
#X connect 32 0 43 0;
#X connect 33 0 27 0;
#X connect 34 0 36 0;
#X connect 35 0 27 0;
#X connect 36 0 30 0;
#X connect 36 1 29 0;
#X connect 37 0 38 1;
#X connect 38 0 42 1;
#X connect 39 0 55 0;
#X connect 40 0 32 0;
#X connect 41 0 34 0;
#X connect 41 1 33 0;
#X connect 41 2 28 0;
#X connect 41 3 42 0;
#X connect 42 0 40 0;
#X connect 43 0 35 0;
#X connect 43 1 31 0;
#X connect 45 0 37 1;
#X connect 48 0 27 1;
#X connect 51 0 27 1;
#X connect 53 0 37 0;
#X connect 56 0 38 0;
#X connect 57 0 0 0;
#X connect 58 0 26 0;
#X connect 59 0 58 0;
#X connect 60 0 19 0;
