#N canvas 338 22 1195 958 10;
#X obj 13 50 OSCroute /smurf;
#X obj 757 75 sendOSC;
#X msg 851 26 disconnect;
#X obj 53 178 unpack f f f;
#X floatatom 53 198 5 0 0 0 - - -;
#X floatatom 87 198 5 0 0 0 - - -;
#X obj 13 76 OSCroute /fid /beat;
#X obj 13 20 dumpOSC 12345;
#X floatatom 122 198 5 0 0 0 - - -;
#X obj 168 23 print DEBUG;
#X obj 13 157 smurf_fidParam;
#X obj 192 179 unpack f f f;
#X floatatom 192 200 5 0 0 0 - - -;
#X floatatom 226 200 5 0 0 0 - - -;
#X floatatom 261 200 5 0 0 0 - - -;
#X obj 152 158 smurf_fidParam;
#X obj 13 178 bng 15 250 50 0 empty empty empty 17 7 0 10 -262144 -1
-1;
#X obj 152 179 bng 15 250 50 0 empty empty empty 17 7 0 10 -262144
-1 -1;
#X obj 98 254 unpack f f f;
#X floatatom 98 274 5 0 0 0 - - -;
#X floatatom 132 274 5 0 0 0 - - -;
#X floatatom 167 274 5 0 0 0 - - -;
#X obj 58 233 smurf_fidParam;
#X obj 237 255 unpack f f f;
#X floatatom 237 276 5 0 0 0 - - -;
#X floatatom 271 276 5 0 0 0 - - -;
#X floatatom 306 276 5 0 0 0 - - -;
#X obj 197 234 smurf_fidParam;
#X obj 58 254 bng 15 250 50 0 empty empty empty 17 7 0 10 -262144 -1
-1;
#X obj 197 255 bng 15 250 50 0 empty empty empty 17 7 0 10 -262144
-1 -1;
#X obj 144 329 unpack f f f;
#X floatatom 144 349 5 0 0 0 - - -;
#X floatatom 178 349 5 0 0 0 - - -;
#X floatatom 213 349 5 0 0 0 - - -;
#X obj 104 308 smurf_fidParam;
#X obj 283 330 unpack f f f;
#X floatatom 283 351 5 0 0 0 - - -;
#X floatatom 317 351 5 0 0 0 - - -;
#X floatatom 352 351 5 0 0 0 - - -;
#X obj 243 309 smurf_fidParam;
#X obj 104 329 bng 15 250 50 0 empty empty empty 17 7 0 10 -262144
-1 -1;
#X obj 243 330 bng 15 250 50 0 empty empty empty 17 7 0 10 -262144
-1 -1;
#X obj 189 405 unpack f f f;
#X floatatom 189 425 5 0 0 0 - - -;
#X floatatom 223 425 5 0 0 0 - - -;
#X floatatom 258 425 5 0 0 0 - - -;
#X obj 149 384 smurf_fidParam;
#X obj 328 406 unpack f f f;
#X floatatom 328 427 5 0 0 0 - - -;
#X floatatom 362 427 5 0 0 0 - - -;
#X floatatom 397 427 5 0 0 0 - - -;
#X obj 288 385 smurf_fidParam;
#X obj 149 405 bng 15 250 50 0 empty empty empty 17 7 0 10 -262144
-1 -1;
#X obj 288 406 bng 15 250 50 0 empty empty empty 17 7 0 10 -262144
-1 -1;
#X obj 235 476 unpack f f f;
#X floatatom 235 496 5 0 0 0 - - -;
#X floatatom 269 496 5 0 0 0 - - -;
#X floatatom 304 496 5 0 0 0 - - -;
#X obj 195 455 smurf_fidParam;
#X obj 374 477 unpack f f f;
#X floatatom 374 498 5 0 0 0 - - -;
#X floatatom 408 498 5 0 0 0 - - -;
#X floatatom 443 498 5 0 0 0 - - -;
#X obj 334 456 smurf_fidParam;
#X obj 195 476 bng 15 250 50 0 empty empty empty 17 7 0 10 -262144
-1 -1;
#X obj 334 477 bng 15 250 50 0 empty empty empty 17 7 0 10 -262144
-1 -1;
#X obj 280 552 unpack f f f;
#X floatatom 280 572 5 0 0 0 - - -;
#X floatatom 314 572 5 0 0 0 - - -;
#X floatatom 349 572 5 0 0 0 - - -;
#X obj 240 531 smurf_fidParam;
#X obj 419 553 unpack f f f;
#X floatatom 419 574 5 0 0 0 - - -;
#X floatatom 453 574 5 0 0 0 - - -;
#X floatatom 488 574 5 0 0 0 - - -;
#X obj 379 532 smurf_fidParam;
#X obj 240 552 bng 15 250 50 0 empty empty empty 17 7 0 10 -262144
-1 -1;
#X obj 379 553 bng 15 250 50 0 empty empty empty 17 7 0 10 -262144
-1 -1;
#X obj 324 624 unpack f f f;
#X floatatom 324 644 5 0 0 0 - - -;
#X floatatom 358 644 5 0 0 0 - - -;
#X floatatom 393 644 5 0 0 0 - - -;
#X obj 284 603 smurf_fidParam;
#X obj 463 625 unpack f f f;
#X floatatom 463 646 5 0 0 0 - - -;
#X floatatom 497 646 5 0 0 0 - - -;
#X floatatom 532 646 5 0 0 0 - - -;
#X obj 423 604 smurf_fidParam;
#X obj 284 624 bng 15 250 50 0 empty empty empty 17 7 0 10 -262144
-1 -1;
#X obj 423 625 bng 15 250 50 0 empty empty empty 17 7 0 10 -262144
-1 -1;
#X obj 13 106 OSCroute /0 /1 /2 /3 /4 /5 /6 /7 /8 /9 /10 /11 /12 /16
;
#X obj 421 201 tabread;
#X obj 420 229 soundfiler;
#X floatatom 736 119 5 0 0 0 - - -;
#X floatatom 790 121 5 0 0 0 - - -;
#X obj 785 166 print DEBUG;
#X msg 851 2 connect localhost 4445;
#X msg 664 14 send /smurf/wiimote -1 0.4 0.5 0 0 0 0 0;
#X connect 0 0 6 0;
#X connect 1 0 93 0;
#X connect 1 1 94 0;
#X connect 2 0 1 0;
#X connect 3 0 4 0;
#X connect 3 1 5 0;
#X connect 3 2 8 0;
#X connect 6 0 90 0;
#X connect 7 0 0 0;
#X connect 10 0 16 0;
#X connect 10 2 3 0;
#X connect 11 0 12 0;
#X connect 11 1 13 0;
#X connect 11 2 14 0;
#X connect 15 0 17 0;
#X connect 15 2 11 0;
#X connect 18 0 19 0;
#X connect 18 1 20 0;
#X connect 18 2 21 0;
#X connect 22 0 28 0;
#X connect 22 2 18 0;
#X connect 23 0 24 0;
#X connect 23 1 25 0;
#X connect 23 2 26 0;
#X connect 27 0 29 0;
#X connect 27 2 23 0;
#X connect 30 0 31 0;
#X connect 30 1 32 0;
#X connect 30 2 33 0;
#X connect 34 0 40 0;
#X connect 34 2 30 0;
#X connect 35 0 36 0;
#X connect 35 1 37 0;
#X connect 35 2 38 0;
#X connect 39 0 41 0;
#X connect 39 2 35 0;
#X connect 42 0 43 0;
#X connect 42 1 44 0;
#X connect 42 2 45 0;
#X connect 46 0 52 0;
#X connect 46 2 42 0;
#X connect 47 0 48 0;
#X connect 47 1 49 0;
#X connect 47 2 50 0;
#X connect 51 0 53 0;
#X connect 51 2 47 0;
#X connect 54 0 55 0;
#X connect 54 1 56 0;
#X connect 54 2 57 0;
#X connect 58 0 64 0;
#X connect 58 2 54 0;
#X connect 59 0 60 0;
#X connect 59 1 61 0;
#X connect 59 2 62 0;
#X connect 63 0 65 0;
#X connect 63 2 59 0;
#X connect 66 0 67 0;
#X connect 66 1 68 0;
#X connect 66 2 69 0;
#X connect 70 0 76 0;
#X connect 70 2 66 0;
#X connect 71 0 72 0;
#X connect 71 1 73 0;
#X connect 71 2 74 0;
#X connect 75 0 77 0;
#X connect 75 2 71 0;
#X connect 78 0 79 0;
#X connect 78 1 80 0;
#X connect 78 2 81 0;
#X connect 82 0 88 0;
#X connect 82 2 78 0;
#X connect 83 0 84 0;
#X connect 83 1 85 0;
#X connect 83 2 86 0;
#X connect 87 0 89 0;
#X connect 87 2 83 0;
#X connect 90 0 10 0;
#X connect 90 1 15 0;
#X connect 90 2 22 0;
#X connect 90 3 27 0;
#X connect 90 4 34 0;
#X connect 90 5 39 0;
#X connect 90 6 46 0;
#X connect 90 7 51 0;
#X connect 90 8 58 0;
#X connect 90 9 63 0;
#X connect 90 10 70 0;
#X connect 90 11 75 0;
#X connect 90 12 82 0;
#X connect 90 13 87 0;
#X connect 96 0 1 0;
#X connect 97 0 1 0;
#X connect 97 0 95 0;
